<!DOCTYPE svg PUBLIC "-//W3C//DTD SVG 1.1//EN" "http://www.w3.org/Graphics/SVG/1.1/DTD/svg11.dtd">
<!-- Uploaded to: SVG Repo, www.svgrepo.com, Transformed by: SVG Repo Mixer Tools -->
<svg width="800px" height="800px" viewBox="0 0 20 20" xmlns="http://www.w3.org/2000/svg" fill="#000000">
<g id="SVGRepo_bgCarrier" stroke-width="0"/>
<g id="SVGRepo_tracerCarrier" stroke-linecap="round" stroke-linejoin="round"/>
<g id="SVGRepo_iconCarrier">
<path d="M17 9a1 1 0 01-1-1c0-.551-.448-1-1-1H5.414l1.293 1.293a.999.999 0 11-1.414 1.414l-3-3a.999.999 0 010-1.414l3-3a.997.997 0 011.414 0 .999.999 0 010 1.414L5.414 5H15c1.654 0 3 1.346 3 3a1 1 0 01-1 1zM3 11a1 1 0 011 1c0 .551.448 1 1 1h9.586l-1.293-1.293a.999.999 0 111.414-1.414l3 3a.999.999 0 010 1.414l-3 3a.999.999 0 11-1.414-1.414L14.586 15H5c-1.654 0-3-1.346-3-3a1 1 0 011-1z" fill="#000000"/>
</g>
</svg>